<svg width="56" height="56" viewBox="0 0 56 56" fill="none" xmlns="http://www.w3.org/2000/svg">
<path d="M41.3784 0H14.6216C10.7437 0 7.02465 1.54049 4.28257 4.28257C1.54049 7.02465 6.70431e-08 10.7437 6.70431e-08 14.6216V41.3784C-0.000183815 43.2986 0.37789 45.2 1.11263 46.9741C1.84737 48.7481 2.92438 50.3601 4.28216 51.7178C5.63993 53.0756 7.25188 54.1526 9.02594 54.8874C10.8 55.6221 12.7014 56.0002 14.6216 56H41.3784C43.2986 56.0002 45.2 55.6221 46.9741 54.8874C48.7481 54.1526 50.3601 53.0756 51.7178 51.7178C53.0756 50.3601 54.1526 48.7481 54.8874 46.9741C55.6221 45.2 56.0002 43.2986 56 41.3784V14.6216C56 10.7437 54.4595 7.02465 51.7174 4.28257C48.9754 1.54049 45.2563 0 41.3784 0ZM47.8184 38.514H8.1858V31.8528H19.9598L10.682 22.575L15.393 17.8654L24.6694 27.1432V14.119H31.3292V27.1432L40.6112 17.8654L45.3208 22.575L36.0416 31.8528H47.8212V38.5154L47.8184 38.514Z" fill="#5CFFD5"/>
</svg>
